<?xml version="1.0" encoding="iso-8859-1"?>
<!-- Uploaded to: SVG Repo, www.svgrepo.com, Generator: SVG Repo Mixer Tools -->
<svg height="800px" width="800px" version="1.1" id="Layer_1" xmlns="http://www.w3.org/2000/svg" xmlns:xlink="http://www.w3.org/1999/xlink" 
	 viewBox="0 0 512 512" xml:space="preserve">
<g transform="translate(0 1)">
	<g>
		<path style="fill:#FFE100;" d="M457.143,218.429h-36.571c0-98.743-70.4-173.714-164.571-173.714S91.429,119.686,91.429,218.429
			H54.857C54.857,100.486,143.543,8.143,256,8.143S457.143,100.486,457.143,218.429"/>
		<path style="fill:#FFE100;" d="M466.286,392.143l-9.143-173.714h-36.571c0,39.314-54.857,55.771-100.571,65.829
			c-42.971,9.143-85.943,9.143-128,0C146.286,274.2,91.429,257.743,91.429,218.429H54.857l-9.143,173.714
			c0,0-4.571,39.314,26.514,73.143c21.029,23.771,52.114,36.571,84.114,36.571H256h99.657c32,0,63.086-12.8,84.114-36.571
			C470.857,431.457,466.286,392.143,466.286,392.143"/>
	</g>
	<path style="fill:#FFA800;" d="M466.286,392.143l-9.143-173.714h-27.429l9.143,173.714c0,0,4.571,39.314-26.514,73.143
		c-21.029,23.771-52.114,36.571-84.114,36.571h27.429c32,0,63.086-12.8,84.114-36.571
		C470.857,431.457,466.286,392.143,466.286,392.143"/>
	<path style="fill:#FFFFFF;" d="M46.629,392.143l9.143-173.714H83.2l-9.143,173.714c0,0-4.571,39.314,26.514,73.143
		c21.029,23.771,52.114,36.571,84.114,36.571h-27.429c-32,0-63.086-12.8-84.114-36.571
		C42.057,431.457,46.629,392.143,46.629,392.143"/>
	<polygon style="fill:#63D3FD;" points="228.571,428.714 283.429,428.714 283.429,355.571 228.571,355.571 	"/>
	<path d="M283.429,437.857h-54.857c-5.486,0-9.143-3.657-9.143-9.143v-73.143c0-5.486,3.657-9.143,9.143-9.143h54.857
		c5.486,0,9.143,3.657,9.143,9.143v73.143C292.571,434.2,288.914,437.857,283.429,437.857z M237.714,419.571h36.571v-54.857h-36.571
		V419.571z"/>
	<path d="M228.571,401.286L228.571,401.286c-91.429-2.743-149.029-21.029-181.029-57.6c-3.657-3.657-2.743-9.143,0.914-12.8
		c3.657-3.657,9.143-2.743,12.8,0.914c27.429,31.086,77.714,47.543,157.257,51.2v-27.429c0-5.486,3.657-9.143,9.143-9.143h54.857
		c5.486,0,9.143,3.657,9.143,9.143v25.6c80.457-6.4,134.4-23.771,157.257-50.286c3.657-3.657,9.143-4.571,12.8-0.914
		c3.657,3.657,4.571,9.143,0.914,12.8c-27.429,32-88.686,51.2-180.114,56.686c-2.743,0-4.571-0.914-6.4-2.743
		c-1.829-1.829-2.743-4.571-2.743-6.4v-25.6H236.8v27.429c0,2.743-0.914,4.571-2.743,6.4
		C233.143,400.371,231.314,401.286,228.571,401.286z"/>
	<path d="M355.657,511H156.343c-35.657,0-68.571-14.629-91.429-39.314C32,435.114,36.571,393.057,36.571,391.229l9.143-181.943
		h54.857v9.143c0,32,50.286,47.543,93.257,57.6c40.229,9.143,82.286,9.143,124.343,0c43.886-9.143,93.257-24.686,93.257-57.6v-9.143
		h54.857l9.143,181.943c0,0.914,4.571,42.971-28.343,80.457C425.143,496.371,391.314,511,355.657,511z M64,227.571l-9.143,165.486
		c0,0.914-3.657,36.571,23.771,66.743c19.2,21.029,46.629,32.914,77.714,32.914h199.314c30.171,0,58.514-11.886,77.714-32.914
		c27.429-31.086,23.771-65.829,23.771-66.743L448,227.571h-19.2C420.571,271.457,352,287,321.829,293.4
		c-43.886,10.057-88.686,10.057-131.657,0C140.8,282.429,90.514,265.971,83.2,227.571H64z"/>
	<path d="M466.286,227.571h-54.857v-9.143c0-94.171-66.743-164.571-155.429-164.571s-155.429,70.4-155.429,164.571v9.143H45.714
		v-9.143C45.714,95,138.057-1,256-1s210.286,96,210.286,219.429V227.571z M429.714,209.286H448c-4.571-108.8-86.857-192-192-192
		s-187.429,83.2-192,192h18.286C86.857,109.629,160,35.571,256,35.571S426.057,109.629,429.714,209.286z"/>
</g>
</svg>