<?xml version="1.0" encoding="iso-8859-1"?>
<!-- Uploaded to: SVG Repo, www.svgrepo.com, Generator: SVG Repo Mixer Tools -->
<svg version="1.1" id="Layer_1" xmlns="http://www.w3.org/2000/svg" xmlns:xlink="http://www.w3.org/1999/xlink" 
	 viewBox="0 0 512.001 512.001" xml:space="preserve">
<g>
	<polyline style="fill:#A00309;" points="291.415,144.782 371.618,144.782 371.618,57.288 291.415,57.288 	"/>
	<polyline style="fill:#A00309;" points="12.267,144.782 92.47,144.782 92.47,57.288 12.267,57.288 	"/>
</g>
<g>
	<rect x="12.262" y="56.423" style="fill:#FFFFFF;" width="23.988" height="87.952"/>
	<rect x="348.091" y="56.423" style="fill:#FFFFFF;" width="23.988" height="87.952"/>
</g>
<polyline style="fill:#ED1C24;" points="292.116,264.314 292.116,56.422 92.22,56.422 92.22,320.284 252.136,320.284 
	252.136,264.314 292.116,264.314 "/>
<g>
	<rect x="92.223" y="296.293" style="fill:#22B573;" width="159.916" height="23.988"/>
	<path style="fill:#22B573;" d="M148.191,56.422v11.994c0,24.288,19.689,43.977,43.977,43.977l0,0
		c24.288,0,43.977-19.689,43.977-43.977V56.422"/>
	<rect x="252.139" y="264.316" style="fill:#22B573;" width="191.904" height="31.983"/>
</g>
<rect x="92.223" y="160.364" style="fill:#FFFFFF;" width="199.893" height="47.976"/>
<path style="fill:#A00309;" d="M252.136,504.187h-25.173c-12.593,0-22.802-10.209-22.802-22.802v-105.13h47.975L252.136,504.187
	L252.136,504.187z"/>
<path style="fill:#ED1C24;" d="M411.893,503.612H252.136V296.297h191.9V471.47C444.036,489.221,429.645,503.612,411.893,503.612z"/>
<rect x="204.163" y="376.256" style="fill:#22B573;" width="47.976" height="23.988"/>
<g>
	<path style="fill:#A00309;" d="M289.155,368.259h-37.018v-71.963h39.98v69.002C292.116,366.934,290.79,368.259,289.155,368.259z"/>
	<path style="fill:#A00309;" d="M407.017,368.259h37.018v-71.963h-39.979v69.002C404.057,366.934,405.382,368.259,407.017,368.259z"
		/>
	<rect x="324.103" y="376.537" style="fill:#A00309;" width="21.515" height="127.075"/>
</g>
<g>
	<rect x="324.103" y="288.304" style="fill:#FFFFFF;" width="47.976" height="23.988"/>
	<rect x="179.967" y="72.912" style="fill:#FFFFFF;" width="23.957" height="15.624"/>
</g>
<rect x="123.721" y="288.522" width="16.666" height="15.624"/>
<rect x="148.719" y="288.522" width="15.624" height="15.624"/>
<rect x="172.676" y="288.522" width="15.624" height="15.624"/>
<rect x="195.591" y="288.522" width="15.624" height="15.624"/>
<rect x="220.589" y="288.522" width="15.624" height="15.624"/>
<path d="M379.886,320.099h-63.6v-39.611h63.6V320.099z M331.91,304.475h32.352v-8.363H331.91V304.475z"/>
<path d="M379.951,48.955H3.934v103.118h80.475v176.023h151.737v-15.624H100.032v-8.325h16.394v-15.624h-16.394v-72.912h184.271
	v32.711h15.624v-96.249h80.023V48.955H379.951z M156.003,64.234h72.33v4.182c0,19.941-16.224,36.165-36.165,36.165
	s-36.165-16.224-36.165-36.165v-4.182H156.003z M140.379,64.234v4.182c0,28.556,23.233,51.789,51.789,51.789
	s51.789-23.233,51.789-51.789v-4.182h40.346v88.881H100.032V64.234H140.379z M43.515,136.449v-16.666H27.891v16.666h-8.333v-71.87
	h8.333v47.913h15.624V64.579h40.894v71.87H43.515z M100.032,199.987v-31.248h184.271v31.248H100.032z M364.327,136.449h-8.333
	v-16.666H340.37v16.666h-40.442v-71.87h40.442v47.913h15.624V64.579h8.333V136.449z"/>
<path d="M244.325,256.502v222.341c0,9.213-6.861,17.068-15.294,17.509c-4.492,0.23-8.765-1.333-12.014-4.416
	c-3.253-3.086-5.043-7.255-5.043-11.736v-71.894h24.236v-15.624h-24.236v-8.615h24.171v-15.624H196.35V480.2
	c0,8.683,3.613,17.091,9.913,23.069c5.971,5.666,13.677,8.732,21.86,8.732c0.023,0,0.047-0.002,0.07-0.002V512l103.888-0.576
	l-0.088-15.624l-76.746,0.425c2.981-5.061,4.702-11.016,4.702-17.382V304.146h48.131v-15.624h-48.131v-16.397h176.275v16.397
	h-47.941v15.624h47.941v165.599c0,14.684-11.946,26.63-26.629,26.63h-53.695V376.438h-23.804v15.624h8.18v119.937h69.319
	c23.298,0,42.253-18.955,42.253-42.254V256.502H244.325z"/>
<path d="M268.128,376.071v-15.624c8.919,0,16.175-7.257,16.175-16.176v-31.983h15.624v31.983
	C299.927,361.805,285.662,376.071,268.128,376.071z"/>
<path d="M428.044,376.071c-17.534,0-31.799-14.266-31.799-31.8v-31.983h15.624v31.983c0,8.919,7.257,16.176,16.175,16.176V376.071z"
	/>
<rect x="340.373" y="328.103" style="fill:#FFFFFF;" width="15.624" height="32.29"/>
<polygon style="fill:#999999;" points="68.513,248.942 51.848,248.942 51.848,232.276 36.224,232.276 36.224,248.942 20.6,248.942 
	20.6,264.566 36.224,264.566 36.224,280.19 51.848,280.19 51.848,264.566 68.513,264.566 "/>
<g>
	<rect x="61.222" y="216.652" style="fill:#FBB03B;" width="15.624" height="15.624"/>
	<rect x="12.267" y="288.522" style="fill:#FBB03B;" width="15.624" height="15.624"/>
</g>
<g>
	<polygon style="fill:#999999;" points="508.067,423.93 492.443,423.93 492.443,408.306 476.819,408.306 476.819,423.93 
		459.112,423.93 459.112,439.554 476.819,439.554 476.819,455.178 492.443,455.178 492.443,439.554 508.067,439.554 	"/>
	<polygon style="fill:#999999;" points="492.443,16.666 476.819,16.666 476.819,0 461.195,0 461.195,16.666 443.488,16.666 
		443.488,32.29 461.195,32.29 461.195,48.955 476.819,48.955 476.819,32.29 492.443,32.29 	"/>
</g>
<g>
	<polygon style="fill:#FBB03B;" points="388.283,209.361 371.618,209.361 371.618,191.654 355.994,191.654 355.994,209.361 
		340.37,209.361 340.37,224.985 355.994,224.985 355.994,240.609 371.618,240.609 371.618,224.985 388.283,224.985 	"/>
	<polygon style="fill:#FBB03B;" points="140.383,432.263 123.718,432.263 123.718,416.639 108.094,416.639 108.094,432.263 
		92.47,432.263 92.47,447.887 108.094,447.887 108.094,464.552 123.718,464.552 123.718,447.887 140.383,447.887 	"/>
	<rect x="476.822" y="368.725" style="fill:#FBB03B;" width="15.624" height="15.624"/>
	<rect x="484.113" y="480.176" style="fill:#FBB03B;" width="15.624" height="15.624"/>
</g>
<rect x="379.954" y="23.957" style="fill:#999999;" width="16.666" height="15.624"/>
<g>
	<rect x="396.619" y="41.664" style="fill:#FBB03B;" width="15.624" height="15.624"/>
	<rect x="476.822" y="80.203" style="fill:#FBB03B;" width="15.624" height="15.624"/>
</g>
<g>
	<rect x="403.91" y="232.276" style="fill:#999999;" width="16.666" height="15.624"/>
	<rect x="468.489" y="191.654" style="fill:#999999;" width="15.624" height="15.624"/>
	<rect x="92.473" y="1.042" style="fill:#999999;" width="15.624" height="15.624"/>
	<rect x="140.386" y="23.957" style="fill:#999999;" width="15.624" height="15.624"/>
	<rect x="51.848" y="457.261" style="fill:#999999;" width="16.666" height="15.624"/>
	<rect x="108.097" y="488.509" style="fill:#999999;" width="15.624" height="15.624"/>
	<rect x="156.01" y="368.725" style="fill:#999999;" width="16.666" height="15.624"/>
</g>
</svg>