<?xml version="1.0" encoding="iso-8859-1"?>
<!-- Uploaded to: SVG Repo, www.svgrepo.com, Generator: SVG Repo Mixer Tools -->
<svg height="800px" width="800px" version="1.1" id="Layer_1" xmlns="http://www.w3.org/2000/svg" xmlns:xlink="http://www.w3.org/1999/xlink" 
	 viewBox="0 0 511.984 511.984" xml:space="preserve">
<polygon style="fill:#FFD2A6;" points="255.992,42.658 0,170.654 0,341.327 255.992,469.326 511.984,341.327 511.984,170.654 "/>
<g>
	<polygon style="fill:#F4BE8E;" points="330.646,431.981 351.989,421.326 351.989,328.673 330.646,328.673 	"/>
	<polygon style="fill:#F4BE8E;" points="415.987,389.327 437.33,378.639 437.33,291.516 415.987,291.516 	"/>
</g>
<polygon style="fill:#37BC9B;" points="255.992,114.484 0,170.654 0,263.807 255.992,391.796 511.984,263.807 511.984,171.607 "/>
<polygon style="fill:#F4BE8E;" points="0,341.327 255.531,469.076 255.531,56.938 227.446,56.938 0,170.654 "/>
<g>
	<polygon style="fill:#EAAD7A;" points="181.33,431.981 181.33,310.61 159.995,310.61 159.995,421.326 	"/>
	<polygon style="fill:#EAAD7A;" points="95.997,389.327 95.997,291.516 74.661,291.516 74.661,378.639 	"/>
</g>
<polygon style="fill:#2EAF8A;" points="0,263.807 255.531,391.577 255.531,121.952 221.93,121.952 0,170.654 "/>
<polygon style="fill:#48CFAD;" points="255.992,42.658 0,170.654 255.992,298.641 511.984,170.654 "/>
<path style="fill:#ED5564;" d="M298.412,198.232c-27.553,22.046-79.825,34.187-97.668,11.875
	c-17.851-22.312,5.484-70.639,33.038-92.669c27.562-22.046,48.913-9.468,66.755,12.843
	C318.381,152.607,325.959,176.186,298.412,198.232z"/>
<g>
	<path style="fill:#A0D468;" d="M313.865,146.952c-4.594,3.671-11.312,2.921-15-1.672c-3.671-4.609-2.937-11.312,1.672-15
		c4.609-3.672,11.312-2.922,14.984,1.672C319.209,136.562,318.459,143.264,313.865,146.952z"/>
	<path style="fill:#A0D468;" d="M300.537,130.281c-4.608,3.688-11.312,2.938-14.983-1.656c-3.688-4.609-2.938-11.312,1.656-14.999
		c4.594-3.672,11.312-2.938,14.999,1.672C305.881,119.889,305.146,126.608,300.537,130.281z"/>
</g>
<g>
	<path style="fill:#8CC153;" d="M220.868,324.423c-4.164-4.188-10.921-4.188-15.085,0c-4.164,4.156-4.164,10.906,0,15.062
		c4.164,4.186,10.921,4.186,15.085,0C225.032,335.329,225.032,328.579,220.868,324.423z"/>
	<path style="fill:#8CC153;" d="M163.12,303.079c-4.164,4.156-4.164,10.906,0,15.094c4.164,4.156,10.914,4.156,15.085,0
		c4.164-4.188,4.164-10.938,0-15.094C174.034,298.923,167.284,298.923,163.12,303.079z"/>
	<path style="fill:#8CC153;" d="M120.449,281.673c-4.164,4.156-4.164,10.938,0,15.094s10.922,4.156,15.086,0
		c4.171-4.156,4.171-10.938,0-15.094C131.371,277.516,124.613,277.516,120.449,281.673z"/>
	<path style="fill:#8CC153;" d="M77.786,260.339c-4.164,4.172-4.164,10.922,0,15.086c4.164,4.154,10.921,4.154,15.085,0
		c4.164-4.164,4.164-10.914,0-15.086C88.708,256.182,81.95,256.182,77.786,260.339z"/>
	<path style="fill:#8CC153;" d="M35.124,239.012c-4.164,4.172-4.164,10.921,0,15.093c4.164,4.157,10.914,4.157,15.085,0
		c4.164-4.171,4.164-10.921,0-15.093C46.037,234.855,39.288,234.855,35.124,239.012z"/>
</g>
<g>
	<path style="fill:#A0D468;" d="M291.116,324.423c4.156-4.188,10.921-4.188,15.093,0c4.156,4.156,4.156,10.906,0,15.062
		c-4.172,4.186-10.937,4.186-15.093,0C286.96,335.329,286.96,328.579,291.116,324.423z"/>
	<path style="fill:#A0D468;" d="M348.864,303.079c4.156,4.156,4.156,10.906,0,15.094c-4.156,4.156-10.921,4.156-15.093,0
		c-4.156-4.188-4.156-10.938,0-15.094C337.943,298.923,344.708,298.923,348.864,303.079z"/>
	<path style="fill:#A0D468;" d="M391.535,281.673c4.172,4.156,4.172,10.938,0,15.094s-10.922,4.156-15.078,0
		c-4.188-4.156-4.188-10.938,0-15.094C380.613,277.516,387.363,277.516,391.535,281.673z"/>
	<path style="fill:#A0D468;" d="M434.205,260.339c4.156,4.172,4.156,10.922,0,15.086c-4.172,4.154-10.937,4.154-15.093,0
		c-4.156-4.164-4.156-10.914,0-15.086C423.268,256.182,430.033,256.182,434.205,260.339z"/>
	<path style="fill:#A0D468;" d="M476.86,239.012c4.156,4.172,4.156,10.921,0,15.093c-4.156,4.157-10.905,4.157-15.093,0
		c-4.156-4.171-4.156-10.921,0-15.093C465.955,234.855,472.704,234.855,476.86,239.012z"/>
</g>
</svg>