<?xml version="1.0" encoding="utf-8"?>
<!-- Uploaded to: SVG Repo, www.svgrepo.com, Generator: SVG Repo Mixer Tools -->
<svg width="800px" height="800px" viewBox="0 0 1024 1024" class="icon"  version="1.1" xmlns="http://www.w3.org/2000/svg"><path d="M162.3 611.8c-13.6 0-24.6 11.3-24.6 25.2v260.7c0 13.9 11 25.2 24.6 25.2 13.6 0 24.6-11.3 24.6-25.2V637c0-13.9-11-25.2-24.6-25.2zM391.6 710c-13.6 0-24.6 10.6-24.6 23.7v165.5c0 13.1 11 23.7 24.6 23.7 13.6 0 24.6-10.6 24.6-23.7V733.7c-0.1-13.1-11.1-23.7-24.6-23.7z m212.8-131c-13.6 0-24.6 10.9-24.6 24.3v295.2c0 13.4 11 24.3 24.6 24.3 13.6 0 24.6-10.9 24.6-24.3V603.4c0-13.5-11-24.4-24.6-24.4z m211.9-120.5c-13.6 0-24.6 11-24.6 24.6V902c0 13.6 11 24.6 24.6 24.6 13.6 0 24.6-11 24.6-24.6V483c-0.1-13.5-11-24.5-24.6-24.5z m88.6-364.3H658.3c-13.6 0-24.6 11-24.6 24.6 0 13.6 11 24.6 24.6 24.6h188.9L466.4 524 311.1 368.7c-9.2-9.2-25.5-9.2-34.7 0l-175 174.9c-9.6 9.6-9.6 25.1 0 34.7 4.8 4.8 11.1 7.2 17.4 7.2 6.3 0 12.6-2.4 17.4-7.2l157.5-157.5L449 576.1c9.6 9.6 25.1 9.6 34.7 0l396.5-396.5v185.7c0 13.6 11 24.6 24.6 24.6 13.6 0 24.6-11 24.6-24.6V118.7c0-13.5-11-24.5-24.5-24.5z" fill="#FCA128" /></svg>