<?xml version="1.0" encoding="iso-8859-1"?>
<!-- Uploaded to: SVG Repo, www.svgrepo.com, Generator: SVG Repo Mixer Tools -->
<svg version="1.1" id="Layer_1" xmlns="http://www.w3.org/2000/svg" xmlns:xlink="http://www.w3.org/1999/xlink" 
	 viewBox="0 0 512 512" xml:space="preserve">
<polygon style="fill:#F7C02D;" points="512,261.653 384,81.638 384,484.789 512,484.789 "/>
<polygon style="fill:#FBE27B;" points="235.085,240.739 256,484.789 384,484.789 384,81.638 "/>
<polygon style="fill:#F7C02D;" points="128,484.789 256,484.789 256,261.653 107.085,240.739 "/>
<polygon style="fill:#FBE27B;" points="0,261.653 0,484.789 128,484.789 128,240.739 "/>
<polygon style="fill:#E43138;" points="128,81.637 107.085,174.859 128,261.653 256,261.653 256,261.653 256,261.653 384,81.638 
	384,81.637 "/>
<polygon style="fill:#F25F67;" points="128,261.653 128,81.637 0,81.637 0,261.653 0,261.653 0,261.653 "/>
<polygon style="fill:#B3592B;" points="153.894,27.214 128,27.214 117.543,83.727 128,150.626 153.894,150.626 "/>
<rect x="102.107" y="27.211" style="fill:#C75214;" width="25.894" height="123.413"/>
<polygon style="fill:#288FD9;" points="109.332,327.368 76.261,327.368 50.849,373.221 76.261,419.075 109.332,419.075 "/>
<rect x="43.186" y="327.368" style="fill:#8BCBF1;" width="33.071" height="91.711"/>
<polygon style="fill:#288FD9;" points="212.811,327.368 179.74,327.368 154.328,373.221 179.74,419.075 212.811,419.075 "/>
<rect x="146.672" y="327.368" style="fill:#8BCBF1;" width="33.071" height="91.711"/>
<polygon style="fill:#288FD9;" points="365.332,327.368 332.26,327.368 306.849,373.221 332.26,419.075 365.332,419.075 "/>
<rect x="299.186" y="327.368" style="fill:#8BCBF1;" width="33.071" height="91.711"/>
<polygon style="fill:#288FD9;" points="468.811,327.368 435.739,327.368 410.328,373.221 435.739,419.075 468.811,419.075 "/>
<rect x="402.672" y="327.368" style="fill:#8BCBF1;" width="33.071" height="91.711"/>
<path style="fill:#288FD9;" d="M384,208.213l-20.915,30.901L384,270.015c17.066,0,30.901-13.834,30.901-30.901
	S401.066,208.213,384,208.213z"/>
<path style="fill:#8BCBF1;" d="M353.099,239.114c0,17.066,13.834,30.901,30.901,30.901v-61.802
	C366.934,208.213,353.099,222.048,353.099,239.114z"/>
</svg>