<?xml version="1.0" encoding="iso-8859-1"?>
<!-- Uploaded to: SVG Repo, www.svgrepo.com, Generator: SVG Repo Mixer Tools -->
<svg version="1.1" id="Layer_1" xmlns="http://www.w3.org/2000/svg" xmlns:xlink="http://www.w3.org/1999/xlink" 
	 viewBox="0 0 512 512" xml:space="preserve">
<path style="fill:#E6E6E6;" d="M429.479,209.28l-115.472,43.429L256,274.523L78.533,209.28l19.621-83.17
	c4.188-17.767,19.979-30.349,38.205-30.489h235.292c18.225,0.16,33.998,12.741,38.185,30.489L429.479,209.28z"/>
<path style="fill:#F2F2F2;" d="M429.479,209.28l-115.472,43.429l-79.939-14.078l55.493-143.01h82.094
	c18.225,0.16,33.998,12.741,38.185,30.489L429.479,209.28z"/>
<path style="fill:#FFCA6C;" d="M477.334,242.1v130.129H34.666V242.1c0-18.126,14.696-32.822,32.822-32.822h11.047h350.944h15.035
	C462.638,209.28,477.334,223.975,477.334,242.1z"/>
<path style="fill:#E5B05C;" d="M97.213,209.28H78.533H67.487c-18.126,0-32.822,14.696-32.822,32.822V372.23h29.726V242.1
	C64.392,223.976,79.088,209.28,97.213,209.28z"/>
<g>
	<rect x="391.588" y="403.7" style="fill:#666666;" width="75.772" height="64.526"/>
	<rect x="44.638" y="403.7" style="fill:#666666;" width="75.772" height="64.526"/>
</g>
<g>
	<rect x="391.588" y="403.7" style="fill:#4D4D4D;" width="75.772" height="28.585"/>
	<rect x="44.638" y="403.7" style="fill:#4D4D4D;" width="75.772" height="28.585"/>
</g>
<path style="fill:#CCCCCC;" d="M503.257,377.231v5.07c0,11.815-9.578,21.393-21.393,21.393h-14.499h-75.772H120.407H44.636H30.137
	c-11.815,0-21.393-9.578-21.393-21.393v-5.07c0-11.815,9.578-21.393,21.393-21.393h4.529h442.668h4.529
	C493.678,355.839,503.257,365.416,503.257,377.231z"/>
<path style="fill:#B3B3B3;" d="M64.699,382.301v-5.07c0-11.815,9.578-21.393,21.393-21.393H34.666h-4.529
	c-11.815,0-21.393,9.578-21.393,21.393v5.07c0,11.815,9.578,21.393,21.393,21.393h14.499h41.457
	C74.277,403.695,64.699,394.117,64.699,382.301z"/>
<g>
	<path style="fill:#E6E6E6;" d="M110.437,249.159c18.704,0,33.898,15.174,33.898,33.898c0,18.724-15.195,33.898-33.898,33.898
		c-18.724,0-33.898-15.174-33.898-33.898S91.714,249.159,110.437,249.159z"/>
	<path style="fill:#E6E6E6;" d="M401.563,249.159c18.704,0,33.898,15.174,33.898,33.898c0,18.724-15.194,33.898-33.898,33.898
		c-18.724,0-33.898-15.174-33.898-33.898S382.839,249.159,401.563,249.159z"/>
</g>
<polygon style="fill:#CCCCCC;" points="371.652,95.621 357.794,43.778 254.007,43.778 150.198,43.778 136.36,95.621 254.007,95.621 
	"/>
<path style="fill:#FFCA6C;" d="M124.831,130.625h258.363c11.774,0.093,22.614,4.492,30.482,11.709l-3.831-16.224
	c-4.188-17.747-19.959-30.329-38.185-30.489H136.366c-18.225,0.14-34.018,12.722-38.205,30.489l-3.824,16.208
	C102.21,135.1,113.057,130.707,124.831,130.625z"/>
<path style="fill:#666666;" d="M330.647,260.565H181.353c-6.127,0-11.096,4.967-11.096,11.096v84.178h171.484v-84.178
	C341.743,265.533,336.774,260.565,330.647,260.565z"/>
<path d="M110.437,325.699c23.512,0,42.641-19.129,42.641-42.642s-19.129-42.641-42.641-42.641
	c-23.513,0-42.642,19.128-42.642,42.641S86.925,325.699,110.437,325.699z M110.437,257.903c13.869,0,25.154,11.285,25.154,25.154
	c0,13.871-11.285,25.155-25.154,25.155c-13.871,0-25.155-11.285-25.155-25.155C85.283,269.187,96.567,257.903,110.437,257.903z"/>
<path d="M444.204,283.057c0-23.513-19.129-42.641-42.642-42.641s-42.641,19.128-42.641,42.641c0,23.513,19.128,42.642,42.641,42.642
	S444.204,306.57,444.204,283.057z M376.407,283.057c0-13.869,11.285-25.154,25.154-25.154c13.871,0,25.155,11.285,25.155,25.154
	c0,13.871-11.285,25.155-25.155,25.155C387.692,308.212,376.407,296.927,376.407,283.057z"/>
<path d="M486.078,347.397V242.1c0-22.918-18.646-41.564-41.565-41.564h-8.115l-14.192-60.095c-0.02-0.092-0.042-0.182-0.064-0.273
	l-3.795-16.066c-4.598-19.484-20.499-33.799-39.837-36.683l-12.27-45.899c-1.022-3.825-4.488-6.485-8.447-6.485H150.198
	c-3.96,0-7.426,2.663-8.447,6.489l-12.249,45.89c-19.351,2.869-35.259,17.186-39.857,36.69l-18.032,76.434h-4.125
	c-22.919,0-41.565,18.646-41.565,41.564v44.555c0,4.829,3.915,8.743,8.743,8.743s8.743-3.915,8.743-8.743v-44.555
	c0-13.276,10.801-24.077,24.078-24.077h377.026c13.277,0,24.078,10.801,24.078,24.077v104.994H350.486v-75.435
	c0-10.939-8.9-19.839-19.839-19.839H181.353c-10.939,0-19.839,8.9-19.839,19.839v75.435H116.42c-4.829,0-8.743,3.915-8.743,8.743
	c0,4.829,3.915,8.743,8.743,8.743h365.443c6.975,0,12.65,5.675,12.65,12.65v5.07c0,6.975-5.675,12.65-12.65,12.65H30.137
	c-6.975,0-12.65-5.675-12.65-12.65v-5.07c0-6.975,5.675-12.65,12.65-12.65h42.415c4.829,0,8.743-3.915,8.743-8.743
	c0-4.829-3.915-8.743-8.743-8.743H43.409v-29.735c0-4.829-3.915-8.743-8.743-8.743s-8.743,3.915-8.743,8.743v30.034
	C11.294,349.453,0,362.046,0,377.231v5.07c0,16.617,13.52,30.137,30.137,30.137h5.755v55.783c0,4.829,3.915,8.743,8.743,8.743
	h75.773c4.829,0,8.743-3.915,8.743-8.743v-55.783h253.698v55.783c0,4.829,3.915,8.743,8.743,8.743h75.772
	c4.829,0,8.743-3.915,8.743-8.743v-55.783h5.756c16.617,0,30.137-13.52,30.137-30.137v-5.07
	C512,362.046,500.706,349.453,486.078,347.397z M156.914,52.52h194.167l9.184,34.357H147.743L156.914,52.52z M89.579,200.536
	l12.599-53.406c6.282-4.958,14.242-7.702,22.652-7.762h201.924c4.829,0,8.743-3.915,8.743-8.743c0-4.829-3.915-8.743-8.743-8.743
	H124.77c-5.891,0.041-11.633,0.99-17.044,2.761c4.353-11.998,15.674-20.177,28.701-20.278h235.16
	c13.017,0.119,24.329,8.299,28.68,20.285c-5.41-1.77-11.161-2.721-17.073-2.768h-25.732c-4.829,0-8.743,3.915-8.743,8.743
	s3.915,8.743,8.743,8.743h25.662c8.459,0.068,16.418,2.813,22.694,7.765l12.611,53.402L89.579,200.536L89.579,200.536z
	 M179.001,347.096v-75.435c0-1.296,1.055-2.353,2.353-2.353h149.293c1.296,0,2.353,1.055,2.353,2.353v75.435H179.001z
	 M111.665,459.477H53.379v-47.04h58.286V459.477z M458.621,459.477h-58.286v-47.04h58.286V459.477z"/>
</svg>