<?xml version="1.0" encoding="iso-8859-1"?>

<!DOCTYPE svg PUBLIC "-//W3C//DTD SVG 1.1//EN" "http://www.w3.org/Graphics/SVG/1.1/DTD/svg11.dtd">
<!-- Uploaded to: SVG Repo, www.svgrepo.com, Generator: SVG Repo Mixer Tools -->
<svg version="1.1" id="_x36_" xmlns="http://www.w3.org/2000/svg" xmlns:xlink="http://www.w3.org/1999/xlink" 
	 viewBox="0 0 512 512"  xml:space="preserve">
<g>
	<g>
		<g>
			<g>
				<path style="fill:#90B6A0;" d="M176.512,295.175h33.37V163.422c-12.275-5.04-23.497-12.055-33.37-20.611V295.175z"/>
				<path style="fill:#90B6A0;" d="M302.09,295.175h33.37V142.811c-9.874,8.555-21.096,15.571-33.37,20.611V295.175z"/>
				<path style="fill:#98C2A2;" d="M176.512,13.335v129.476c9.874,8.555,21.096,15.571,33.37,20.611V13.335H176.512z"/>
				<path style="fill:#98C2A2;" d="M302.09,13.335v150.086c12.275-5.04,23.497-12.055,33.37-20.611V13.335H302.09z"/>
				<path style="fill:#636C6C;" d="M343.783,5.551v42.284c0,3.068-2.483,5.551-5.551,5.551l-70.669,4.412l-1.479,0.09l-10.304,0.643
					l-10.253-0.643l-1.119-0.071l-70.668-4.432c-3.068,0-5.551-2.483-5.551-5.551V5.551c0-3.068,2.483-5.551,5.551-5.551h164.492
					C341.301,0,343.783,2.483,343.783,5.551z"/>
			</g>
			<g>
				<path style="fill:#5C7962;" d="M158.256,459.568c0,4.604-0.461,8.975-1.229,13.117c-3.145,15.726-11.735,27.387-22.169,29.228
					c-0.92,0.154-1.841,0.23-2.837,0.23h-20.56c-0.996,0-1.918-0.077-2.837-0.23c-10.434-1.841-19.024-13.501-22.171-29.228
					c-0.766-4.143-1.227-8.514-1.227-13.117c0-4.603,0.461-8.975,1.227-13.117c3.146-15.726,11.737-27.387,22.171-29.228
					c0.92-0.154,1.841-0.23,2.837-0.23h20.56c0.996,0,1.918,0.077,2.837,0.23c10.434,1.841,19.024,13.501,22.169,29.228
					C157.795,450.593,158.256,454.964,158.256,459.568z"/>
				<path style="fill:#5E9176;" d="M158.256,459.568c0,4.604-0.461,8.975-1.229,13.117H86.453
					c-0.766-4.143-1.227-8.514-1.227-13.117c0-4.603,0.461-8.975,1.227-13.117h70.575
					C157.795,450.593,158.256,454.964,158.256,459.568z"/>
			</g>
			<g>
				<path style="fill:#5C7962;" d="M426.747,459.568c0,4.604-0.461,8.975-1.228,13.117c-3.145,15.726-11.735,27.387-22.169,29.228
					c-0.919,0.154-1.841,0.23-2.837,0.23h-20.56c-0.996,0-1.918-0.077-2.837-0.23c-10.434-1.841-19.024-13.501-22.171-29.228
					c-0.766-4.143-1.227-8.514-1.227-13.117c0-4.603,0.461-8.975,1.227-13.117c3.146-15.726,11.737-27.387,22.171-29.228
					c0.919-0.154,1.841-0.23,2.837-0.23h20.56c0.996,0,1.918,0.077,2.837,0.23c10.434,1.841,19.024,13.501,22.169,29.228
					C426.287,450.593,426.747,454.964,426.747,459.568z"/>
				<path style="fill:#5E9176;" d="M426.747,459.568c0,4.604-0.461,8.975-1.228,13.117h-70.575
					c-0.766-4.143-1.227-8.514-1.227-13.117c0-4.603,0.461-8.975,1.227-13.117h70.575
					C426.287,450.593,426.747,454.964,426.747,459.568z"/>
			</g>
			<path style="fill:#98C2A2;" d="M511.973,196.215v249.467c0,8.975-7.21,16.187-16.185,16.187H16.185
				C7.21,461.869,0,454.657,0,445.682V196.215c0-8.975,7.21-16.185,16.185-16.185h479.603
				C504.763,180.03,511.973,187.24,511.973,196.215z"/>
			<g>
				<path style="opacity:0.9;fill:#79886A;" d="M512,196.214v55.588c-25.299-9.603-46.641-27.288-60.839-49.887
					c-0.675-1.069-1.312-2.119-1.951-3.207c-0.037-0.038-0.075-0.113-0.075-0.169c-3.469-5.889-6.432-12.078-8.889-18.511h55.569
					C504.761,180.029,512,187.268,512,196.214z"/>
				<circle style="fill:#E4E4E8;" cx="476.197" cy="216.334" r="2.336"/>
				<circle style="fill:#E4E4E8;" cx="459.81" cy="196.228" r="2.336"/>
				<circle style="fill:#E4E4E8;" cx="493.912" cy="230.869" r="2.336"/>
			</g>
			<g>
				<path style="opacity:0.9;fill:#79886A;" d="M16.191,180.039h55.588c-9.602,25.299-27.288,46.641-49.887,60.839
					c-1.069,0.675-2.119,1.312-3.207,1.951c-0.038,0.038-0.113,0.075-0.169,0.075c-5.889,3.469-12.078,6.432-18.511,8.889v-55.569
					C0.006,187.278,7.245,180.039,16.191,180.039z"/>
				<circle style="fill:#E4E4E8;" cx="36.312" cy="215.842" r="2.336"/>
				<circle style="fill:#E4E4E8;" cx="16.205" cy="232.229" r="2.336"/>
				<circle style="fill:#E4E4E8;" cx="50.846" cy="198.127" r="2.336"/>
			</g>
			<g>
				<path style="opacity:0.9;fill:#79886A;" d="M512,445.679v-55.588c-25.299,9.602-46.641,27.288-60.839,49.887
					c-0.675,1.069-1.312,2.119-1.951,3.207c-0.037,0.038-0.075,0.113-0.075,0.168c-3.469,5.889-6.432,12.078-8.889,18.511h55.569
					C504.761,461.864,512,454.625,512,445.679z"/>
				<circle style="fill:#E4E4E8;" cx="476.197" cy="425.559" r="2.336"/>
				<circle style="fill:#E4E4E8;" cx="459.81" cy="445.665" r="2.336"/>
				<circle style="fill:#E4E4E8;" cx="493.912" cy="411.024" r="2.336"/>
			</g>
			<g>
				<path style="opacity:0.9;fill:#79886A;" d="M16.191,461.854h55.588c-9.602-25.299-27.288-46.641-49.887-60.839
					c-1.069-0.675-2.119-1.312-3.207-1.951c-0.038-0.038-0.113-0.075-0.169-0.075c-5.889-3.469-12.078-6.432-18.511-8.889v55.569
					C0.006,454.616,7.245,461.854,16.191,461.854z"/>
				<circle style="fill:#E4E4E8;" cx="36.312" cy="426.051" r="2.336"/>
				<circle style="fill:#E4E4E8;" cx="16.205" cy="409.665" r="2.336"/>
				<circle style="fill:#E4E4E8;" cx="50.846" cy="443.766" r="2.336"/>
			</g>
			<g style="opacity:0.9;">
				<rect x="92.974" y="180.03" style="fill:#B68E66;" width="68.503" height="281.839"/>
				<rect x="350.496" y="180.03" style="fill:#B68E66;" width="68.503" height="281.839"/>
			</g>
		</g>
		<polygon style="fill:none;" points="245.529,57.888 244.409,57.817 209.883,55.652 209.883,163.422 209.883,180.03 256,180.03 
			256,58.518 255.781,58.531 		"/>
		<polygon style="fill:none;" points="302.09,180.03 302.09,163.422 302.09,55.643 267.565,57.797 266.085,57.888 256,58.518 
			256,180.03 		"/>
		<path style="opacity:0.06;fill:#040000;" d="M511.999,251.801v-55.588c0-8.947-7.238-16.183-16.185-16.183h-55.568h-21.247
			h-68.503h-15.035v-37.219V53.558l2.772-0.172c3.068,0,5.551-2.483,5.551-5.551V5.552c0-3.07-2.483-5.551-5.551-5.551H256v58.517
			l10.085-0.629l1.48-0.092l34.526-2.154v107.779v16.608H256v281.839h94.496h3.334c0.125,3.751,0.479,7.381,1.114,10.816
			c3.146,15.726,11.737,27.387,22.171,29.228c0.919,0.154,1.841,0.23,2.837,0.23h20.56c0.996,0,1.918-0.077,2.837-0.23
			c10.434-1.841,19.024-13.501,22.169-29.228c0.637-3.435,0.991-7.064,1.116-10.816h69.153c4.489,0,8.536-1.805,11.462-4.733
			c2.935-2.929,4.75-6.978,4.75-11.458v-55.588c-0.008,0.004-0.017,0.009-0.026,0.011V251.79
			C511.983,251.794,511.992,251.798,511.999,251.801z"/>
	</g>
	<g>
		<path style="fill:#EBC5A2;" d="M240.906,272.148c9.985,31.375-9.637,63.51-42.107,68.961c-31.375,9.985-63.51-9.637-68.961-42.107
			c-9.985-31.375,9.637-63.51,42.107-68.961C203.32,220.056,235.455,239.677,240.906,272.148z"/>
		<path style="fill:#F7D9C1;" d="M182.167,329.794c-19.144,0-35.377-13.922-38.6-33.1l-0.163-0.979l-0.299-0.938
			c-3.586-11.271-2.257-22.889,3.746-32.719c6.006-9.837,15.734-16.329,27.4-18.287l0.976-0.163l0.941-0.299
			c4.079-1.298,8.253-1.958,12.407-1.958c19.147,0,35.381,13.923,38.603,33.1l0.163,0.979l0.299,0.938
			c3.586,11.271,2.257,22.889-3.746,32.719c-6.006,9.837-15.734,16.329-27.4,18.287l-0.976,0.163l-0.941,0.299
			C190.494,329.142,186.32,329.794,182.167,329.794z"/>
	</g>
	<g>
		
			<rect x="403.729" y="323.527" transform="matrix(0.7201 0.6939 -0.6939 0.7201 371.8642 -188.0443)" style="opacity:0.8;fill:#D9C66F;" width="30.541" height="86.7"/>
		
			<rect x="403.729" y="323.527" transform="matrix(-0.7201 0.6939 -0.6939 -0.7201 975.2845 340.3105)" style="opacity:0.8;fill:#D9C66F;" width="30.541" height="86.7"/>
	</g>
</g>
</svg>